<svg xmlns="http://www.w3.org/2000/svg"  viewBox="0 0 100 100" width="500px" height="500px"><circle cx="13" cy="29" r="2" fill="#78a0cf"/><circle cx="77" cy="13" r="1" fill="#f1bc19"/><circle cx="50" cy="50" r="37" fill="#cee1f4"/><circle cx="83" cy="15" r="4" fill="#f1bc19"/><circle cx="87" cy="24" r="2" fill="#78a0cf"/><circle cx="81" cy="76" r="2" fill="#fbcd59"/><circle cx="15" cy="63" r="4" fill="#fbcd59"/><circle cx="25" cy="87" r="2" fill="#78a0cf"/><circle cx="18.5" cy="53.5" r="2.5" fill="#fff"/><circle cx="21" cy="67" r="1" fill="#f1bc19"/><circle cx="80" cy="34" r="1" fill="#fff"/><g><polygon fill="#f16869" points="49.979,22.7 41.313,37.898 49.979,53.095 58.645,37.898"/><polygon fill="#f16869" points="49.946,53.112 68.078,53.085 77.483,68.278 59.234,68.278"/><polygon fill="#f16869" points="50.168,53.112 31.905,53.085 22.5,68.277 40.837,68.278"/><polygon fill="none" stroke="#472b29" stroke-linecap="round" stroke-linejoin="round" stroke-miterlimit="10" stroke-width="1.4" points="49.979,22.7 41.313,37.898 49.979,53.095 58.645,37.898"/><path fill="none" stroke="#472b29" stroke-linecap="round" stroke-linejoin="round" stroke-miterlimit="10" d="M47.392,33.19 l0.869-1.447 M46.951,41.872l-2.386-3.974l1.523-2.537 M50.86,45.489l-0.869,1.447l-1.737-2.894"/><polygon fill="none" stroke="#472b29" stroke-linecap="round" stroke-linejoin="round" stroke-miterlimit="10" stroke-width="1.4" points="49.946,53.112 68.078,53.085 77.483,68.278 59.234,68.278"/><polygon fill="none" stroke="#472b29" stroke-linecap="round" stroke-linejoin="round" stroke-miterlimit="10" stroke-width="1.4" points="50.168,53.112 31.905,53.085 22.5,68.277 40.837,68.278"/><line x1="62.652" x2="66.269" y1="56.341" y2="56.341" fill="none" stroke="#472b29" stroke-linecap="round" stroke-linejoin="round" stroke-miterlimit="10"/><line x1="59.035" x2="60.481" y1="56.341" y2="56.341" fill="none" stroke="#472b29" stroke-linecap="round" stroke-linejoin="round" stroke-miterlimit="10"/><polyline fill="none" stroke="#472b29" stroke-linecap="round" stroke-linejoin="round" stroke-miterlimit="10" points="58.673,61.405 55.417,56.341 56.864,56.341"/></g></svg>