<svg xmlns="http://www.w3.org/2000/svg"  viewBox="0 0 100 100" width="500px" height="500px"><circle cx="13" cy="29" r="2" fill="#ee3e54"/><circle cx="77" cy="13" r="1" fill="#f1bc19"/><circle cx="50" cy="50" r="37" fill="#fce0a2"/><circle cx="83" cy="15" r="4" fill="#f1bc19"/><circle cx="87" cy="24" r="2" fill="#ee3e54"/><circle cx="81" cy="76" r="2" fill="#fbcd59"/><circle cx="15" cy="63" r="4" fill="#fbcd59"/><circle cx="25" cy="87" r="2" fill="#ee3e54"/><circle cx="18.5" cy="53.5" r="2.5" fill="#fff"/><circle cx="21" cy="67" r="1" fill="#f1bc19"/><circle cx="80" cy="34" r="1" fill="#fff"/><g><path fill="#bdc4d6" d="M79.182,49.636C78.057,39.855,65.78,32.716,50,32.716c-15.59,0-27.856,7.035-29.166,16.727 c-0.082,0.534-0.128,1.104-0.133,1.655c-0.021,2.257,0.514,4.185,1.636,5.895c5.276,8.046,17.821,10.716,18.361,10.842 l1.978,0.465L50,51.206L57.325,68.3l1.978-0.464c0.54-0.126,13.085-2.796,18.361-10.842c1.122-1.711,1.657-3.638,1.636-5.895 C79.296,50.653,79.258,50.189,79.182,49.636z M63.539,60.282L50,44.039L36.809,60.282c0,0-11.109-3.32-11.109-8.828 c0-0.41,0.046-0.814,0.111-1.215c0.021-0.126,0.045-0.252,0.072-0.378c0.066-0.314,0.152-0.625,0.255-0.932 c0.03-0.09,0.052-0.182,0.085-0.272C28.535,42.499,38.316,37.682,50,37.682c10.7,0,19.789,4.071,23.023,9.456 c0.137,0.234,0.264,0.47,0.38,0.707c0.069,0.14,0.132,0.279,0.193,0.42c0.108,0.251,0.208,0.503,0.292,0.758 c0.06,0.182,0.104,0.366,0.151,0.55c0.053,0.21,0.112,0.421,0.148,0.633c0.067,0.412,0.113,0.827,0.113,1.248 C74.3,56.963,63.539,60.282,63.539,60.282z"/><path fill="none" stroke="#472b29" stroke-linecap="round" stroke-linejoin="round" stroke-miterlimit="10" stroke-width="1.4" d="M79.182,49.636C78.057,39.855,65.78,32.716,50,32.716c-15.59,0-27.856,7.035-29.166,16.727c-0.082,0.534-0.128,1.104-0.133,1.655 c-0.021,2.257,0.514,4.185,1.636,5.895c5.276,8.046,17.821,10.716,18.361,10.842l1.978,0.465L50,51.206L57.325,68.3l1.978-0.464 c0.54-0.126,13.085-2.796,18.361-10.842c1.122-1.71,1.657-3.638,1.636-5.895C79.296,50.653,79.258,50.189,79.182,49.636z"/><path fill="none" stroke="#472b29" stroke-linecap="round" stroke-linejoin="round" stroke-miterlimit="10" stroke-width="1.4" d="M63.539,60.282L50,44.039L36.809,60.282c0,0-11.109-3.32-11.109-8.828c0-0.41,0.046-0.814,0.111-1.215 c0.021-0.126,0.045-0.252,0.072-0.378c0.066-0.314,0.152-0.625,0.255-0.932c0.03-0.09,0.052-0.182,0.085-0.272 C28.535,42.499,38.316,37.682,50,37.682c10.7,0,19.789,4.071,23.023,9.456c0.137,0.234,0.264,0.47,0.38,0.707 c0.069,0.14,0.132,0.279,0.193,0.42c0.108,0.251,0.208,0.503,0.292,0.758c0.06,0.182,0.104,0.366,0.151,0.55 c0.053,0.21,0.112,0.421,0.148,0.633c0.067,0.412,0.113,0.827,0.113,1.248C74.3,56.963,63.539,60.282,63.539,60.282z"/></g></svg>